# xmcd CD database file generated by Grip 3.0.5
# 
# Track frame offsets:
#       150
#       17782
#       39440
# 
# Disc length: 750 seconds
# 
# Revision: 1
# Processed by: cddbd v1.5.1PL0 Copyright (c) Steve Scherf et al.
# Submitted via: Grip 3.0.5
# 
DISCID=1a02ec03
DTITLE=Ladytron - Play Girl - Commodore Rock
DYEAR=2000
DGENRE=Electronic
TTITLE0=Play Girl
TTITLE1=Commodore Rock
TTITLE2=He took her to a movie (Bertrand Mix)
EXTD=YEAR: 1993
EXTT0=
EXTT1=
EXTT2=
PLAYORDER=
